<svg width="20" height="20" viewBox="0 0 20 20" fill="none" xmlns="http://www.w3.org/2000/svg">
<path d="M9.99984 10.8333C10.4601 10.8333 10.8332 10.4602 10.8332 10C10.8332 9.53977 10.4601 9.16667 9.99984 9.16667C9.5396 9.16667 9.1665 9.53977 9.1665 10C9.1665 10.4602 9.5396 10.8333 9.99984 10.8333Z" stroke="#333333" stroke-width="2" stroke-linecap="round" stroke-linejoin="round"/>
<path d="M9.99984 5C10.4601 5 10.8332 4.62691 10.8332 4.16667C10.8332 3.70643 10.4601 3.33334 9.99984 3.33334C9.5396 3.33334 9.1665 3.70643 9.1665 4.16667C9.1665 4.62691 9.5396 5 9.99984 5Z" stroke="#333333" stroke-width="2" stroke-linecap="round" stroke-linejoin="round"/>
<path d="M9.99984 16.6667C10.4601 16.6667 10.8332 16.2936 10.8332 15.8333C10.8332 15.3731 10.4601 15 9.99984 15C9.5396 15 9.1665 15.3731 9.1665 15.8333C9.1665 16.2936 9.5396 16.6667 9.99984 16.6667Z" stroke="#333333" stroke-width="2" stroke-linecap="round" stroke-linejoin="round"/>
</svg>
