<svg width="20" height="20" viewBox="0 0 20 20" fill="none" xmlns="http://www.w3.org/2000/svg">
<g clip-path="url(#clip0_2986_2962)">
<path d="M8.74984 1.66896C8.1873 1.67658 7.84959 1.70915 7.57652 1.84828C7.26292 2.00807 7.00795 2.26304 6.84816 2.57664C6.70903 2.84971 6.67646 3.18742 6.66883 3.74996M16.2498 1.66896C16.8124 1.67658 17.1501 1.70915 17.4232 1.84828C17.7368 2.00807 17.9917 2.26304 18.1515 2.57664C18.2906 2.84971 18.3232 3.18741 18.3308 3.74995M18.3308 11.25C18.3232 11.8125 18.2907 12.1502 18.1515 12.4233C17.9917 12.7369 17.7368 12.9918 17.4232 13.1516C17.1501 13.2908 16.8124 13.3233 16.2498 13.331M18.3332 6.66662V8.33329M11.6665 1.66663H13.3331M4.33317 18.3333H10.6665C11.5999 18.3333 12.0666 18.3333 12.4232 18.1516C12.7368 17.9918 12.9917 17.7369 13.1515 17.4233C13.3332 17.0668 13.3332 16.6 13.3332 15.6666V9.33329C13.3332 8.39987 13.3332 7.93316 13.1515 7.57664C12.9917 7.26304 12.7368 7.00807 12.4232 6.84828C12.0666 6.66663 11.5999 6.66663 10.6665 6.66663H4.33317C3.39975 6.66663 2.93304 6.66663 2.57652 6.84828C2.26292 7.00807 2.00795 7.26304 1.84816 7.57664C1.6665 7.93316 1.6665 8.39987 1.6665 9.33329V15.6666C1.6665 16.6 1.6665 17.0668 1.84816 17.4233C2.00795 17.7369 2.26292 17.9918 2.57652 18.1516C2.93304 18.3333 3.39975 18.3333 4.33317 18.3333Z" stroke="#333333" stroke-width="2" stroke-linecap="round" stroke-linejoin="round"/>
</g>
<defs>
<clipPath id="clip0_2986_2962">
<rect width="20" height="20" fill="white"/>
</clipPath>
</defs>
</svg>
