<svg width="20" height="20" viewBox="0 0 20 20" fill="none" xmlns="http://www.w3.org/2000/svg">
<g clip-path="url(#clip0_2986_3025)">
<path d="M9.99984 12.5C11.3805 12.5 12.4998 11.3807 12.4998 10C12.4998 8.61931 11.3805 7.50002 9.99984 7.50002C8.61913 7.50002 7.49984 8.61931 7.49984 10C7.49984 11.3807 8.61913 12.5 9.99984 12.5Z" stroke="#333333" stroke-width="2" stroke-linecap="round" stroke-linejoin="round"/>
<path d="M15.6059 12.2727C15.5051 12.5012 15.475 12.7547 15.5195 13.0005C15.5641 13.2462 15.6812 13.473 15.8559 13.6515L15.9014 13.697C16.0422 13.8377 16.154 14.0048 16.2302 14.1887C16.3065 14.3727 16.3457 14.5698 16.3457 14.769C16.3457 14.9681 16.3065 15.1652 16.2302 15.3492C16.154 15.5331 16.0422 15.7002 15.9014 15.8409C15.7606 15.9818 15.5935 16.0936 15.4096 16.1698C15.2257 16.2461 15.0285 16.2853 14.8294 16.2853C14.6303 16.2853 14.4331 16.2461 14.2492 16.1698C14.0652 16.0936 13.8981 15.9818 13.7574 15.8409L13.712 15.7955C13.5334 15.6208 13.3066 15.5037 13.0609 15.4591C12.8151 15.4145 12.5617 15.4446 12.3332 15.5455C12.1091 15.6415 11.918 15.801 11.7834 16.0042C11.6488 16.2075 11.5766 16.4456 11.5756 16.6894V16.8182C11.5756 17.22 11.416 17.6054 11.1318 17.8896C10.8477 18.1737 10.4623 18.3334 10.0604 18.3334C9.6586 18.3334 9.27322 18.1737 8.98907 17.8896C8.70492 17.6054 8.54529 17.22 8.54529 16.8182V16.75C8.53943 16.4993 8.45826 16.2561 8.31235 16.0521C8.16643 15.8481 7.96252 15.6927 7.72711 15.6061C7.49861 15.5052 7.24515 15.4752 6.99939 15.5197C6.75364 15.5643 6.52687 15.6814 6.34832 15.8561L6.30287 15.9015C6.16215 16.0424 5.99505 16.1542 5.81111 16.2304C5.62717 16.3067 5.43001 16.3459 5.2309 16.3459C5.03178 16.3459 4.83462 16.3067 4.65069 16.2304C4.46675 16.1542 4.29965 16.0424 4.15893 15.9015C4.01805 15.7608 3.9063 15.5937 3.83005 15.4098C3.7538 15.2258 3.71455 15.0287 3.71455 14.8296C3.71455 14.6305 3.7538 14.4333 3.83005 14.2494C3.9063 14.0654 4.01805 13.8983 4.15893 13.7576L4.20438 13.7121C4.37903 13.5336 4.49619 13.3068 4.54075 13.0611C4.58531 12.8153 4.55523 12.5619 4.45438 12.3334C4.35835 12.1093 4.19889 11.9182 3.99564 11.7836C3.79239 11.649 3.55422 11.5768 3.31044 11.5758H3.18166C2.77981 11.5758 2.39443 11.4161 2.11028 11.132C1.82614 10.8479 1.6665 10.4625 1.6665 10.0606C1.6665 9.65878 1.82614 9.2734 2.11028 8.98925C2.39443 8.70511 2.77981 8.54548 3.18166 8.54548H3.24984C3.50059 8.53961 3.74378 8.45844 3.94779 8.31253C4.1518 8.16661 4.3072 7.9627 4.39378 7.72729C4.49462 7.4988 4.5247 7.24533 4.48014 6.99957C4.43558 6.75382 4.31843 6.52705 4.14378 6.34851L4.09832 6.30305C3.95745 6.16233 3.84569 5.99523 3.76944 5.81129C3.69319 5.62736 3.65395 5.4302 3.65395 5.23108C3.65395 5.03197 3.69319 4.83481 3.76944 4.65087C3.84569 4.46693 3.95745 4.29983 4.09832 4.15911C4.23904 4.01824 4.40614 3.90648 4.59008 3.83023C4.77402 3.75398 4.97118 3.71474 5.17029 3.71474C5.36941 3.71474 5.56657 3.75398 5.7505 3.83023C5.93444 3.90648 6.10154 4.01824 6.24226 4.15911L6.28772 4.20457C6.46626 4.37922 6.69303 4.49637 6.93879 4.54093C7.18454 4.58549 7.43801 4.55541 7.6665 4.45457H7.72711C7.95118 4.35853 8.14228 4.19908 8.27688 3.99583C8.41148 3.79258 8.48371 3.5544 8.48469 3.31063V3.18184C8.48469 2.78 8.64432 2.39461 8.92846 2.11046C9.21261 1.82632 9.59799 1.66669 9.99984 1.66669C10.4017 1.66669 10.7871 1.82632 11.0712 2.11046C11.3554 2.39461 11.515 2.78 11.515 3.18184V3.25002C11.516 3.4938 11.5882 3.73197 11.7228 3.93522C11.8574 4.13847 12.0485 4.29793 12.2726 4.39396C12.5011 4.4948 12.7545 4.52489 13.0003 4.48033C13.246 4.43577 13.4728 4.31861 13.6514 4.14396L13.6968 4.09851C13.8375 3.95763 14.0046 3.84588 14.1886 3.76963C14.3725 3.69338 14.5697 3.65413 14.7688 3.65413C14.9679 3.65413 15.1651 3.69338 15.349 3.76963C15.5329 3.84588 15.7 3.95763 15.8407 4.09851C15.9816 4.23922 16.0934 4.40633 16.1696 4.59026C16.2459 4.7742 16.2851 4.97136 16.2851 5.17048C16.2851 5.36959 16.2459 5.56675 16.1696 5.75069C16.0934 5.93462 15.9816 6.10173 15.8407 6.24244L15.7953 6.2879C15.6206 6.46644 15.5035 6.69321 15.4589 6.93897C15.4144 7.18472 15.4444 7.43819 15.5453 7.66669V7.72729C15.6413 7.95136 15.8008 8.14246 16.004 8.27706C16.2073 8.41166 16.4455 8.4839 16.6892 8.48487H16.818C17.2199 8.48487 17.6052 8.6445 17.8894 8.92865C18.1735 9.21279 18.3332 9.59818 18.3332 10C18.3332 10.4019 18.1735 10.7872 17.8894 11.0714C17.6052 11.3555 17.2199 11.5152 16.818 11.5152H16.7498C16.5061 11.5161 16.2679 11.5884 16.0646 11.723C15.8614 11.8576 15.7019 12.0487 15.6059 12.2727Z" stroke="#333333" stroke-width="2" stroke-linecap="round" stroke-linejoin="round"/>
</g>
<defs>
<clipPath id="clip0_2986_3025">
<rect width="20" height="20" fill="white"/>
</clipPath>
</defs>
</svg>
